<svg xmlns="http://www.w3.org/2000/svg" class="devto" version="1" viewBox="0 0 408 410"><path d="M11 3C6 4 2 8 1 13L0 207c1 190 1 191 3 194l5 6c4 2 4 2 196 2s193 0 196-2l6-6c2-3 2-4 2-196s0-192-2-196l-6-5c-3-2-4-2-194-3L11 2zm96 124c9 1 16 5 22 12 7 6 10 14 12 22v88c-3 18-19 32-38 35l-30 1H51V125h25c17 0 26 0 31 2zm131 13v14h-51v36h31v29h-31v36l26 1h25v29h-29c-33 0-38-1-44-5-7-7-6-2-7-73l1-67c1-5 7-12 13-13 3-2 10-2 35-2h31v15zm49-13a7306 7306 0 0 1 28 105l14-54 14-52 15-1 16 1-37 139c-1 5-9 14-13 17-5 3-13 3-18 1-4-3-10-9-13-15-1-4-31-112-37-140l-1-3h15c16 0 16 0 17 2z"/><path d="M80 205v51h10c9-1 11-1 15-3 8-5 8-5 8-49 0-42 0-42-7-47-4-2-5-3-15-3H80v51z"/></svg>